<svg width="20" height="20" viewBox="0 0 20 20" fill="none" xmlns="http://www.w3.org/2000/svg">
<path d="M19.5871 18.615L14.3951 13.423C15.6428 11.9251 16.2649 10.0039 16.1322 8.05902C15.9994 6.11413 15.1219 4.29529 13.6823 2.98088C12.2427 1.66646 10.3517 0.957674 8.40281 1.00196C6.45389 1.04624 4.59708 1.84019 3.21863 3.21863C1.84019 4.59708 1.04624 6.45389 1.00196 8.40281C0.957674 10.3517 1.66646 12.2427 2.98088 13.6823C4.29529 15.1219 6.11413 15.9994 8.05902 16.1322C10.0039 16.2649 11.9251 15.6428 13.423 14.3951L18.615 19.5871L19.5871 18.615ZM2.39959 8.58708C2.39959 7.36331 2.76248 6.16702 3.44237 5.14949C4.12226 4.13197 5.08861 3.3389 6.21923 2.87058C7.34985 2.40226 8.59395 2.27973 9.79421 2.51848C10.9945 2.75722 12.097 3.34652 12.9623 4.21186C13.8276 5.0772 14.4169 6.17971 14.6557 7.37996C14.8944 8.58022 14.7719 9.82432 14.3036 10.9549C13.8353 12.0856 13.0422 13.0519 12.0247 13.7318C11.0071 14.4117 9.81086 14.7746 8.58708 14.7746C6.94662 14.7728 5.37386 14.1203 4.21387 12.9603C3.05388 11.8003 2.4014 10.2276 2.39959 8.58708Z" fill="black" fill-opacity="0.5" stroke="black" stroke-opacity="0.2" stroke-width="0.5"/>
</svg>
