<svg width="18" height="17" viewBox="0 0 18 17" fill="none" xmlns="http://www.w3.org/2000/svg">
<path d="M8.1 12.75H9.9V7.65H8.1V12.75ZM9 5.95C9.255 5.95 9.4689 5.8684 9.6417 5.7052C9.8145 5.542 9.9006 5.34027 9.9 5.1C9.9 4.85917 9.8136 4.65715 9.6408 4.49395C9.468 4.33075 9.2544 4.24943 9 4.25C8.745 4.25 8.5311 4.3316 8.3583 4.4948C8.1855 4.658 8.0994 4.85973 8.1 5.1C8.1 5.34083 8.1864 5.54285 8.3592 5.70605C8.532 5.86925 8.7456 5.95057 9 5.95ZM9 17C7.755 17 6.585 16.7767 5.49 16.3302C4.395 15.8837 3.4425 15.2782 2.6325 14.5137C1.8225 13.7487 1.1814 12.8492 0.7092 11.815C0.237 10.7808 0.0006 9.67583 0 8.5C0 7.32417 0.2364 6.21917 0.7092 5.185C1.182 4.15083 1.8231 3.25125 2.6325 2.48625C3.4425 1.72125 4.395 1.11577 5.49 0.6698C6.585 0.223833 7.755 0.000566667 9 0C10.245 0 11.415 0.223267 12.51 0.6698C13.605 1.11633 14.5575 1.72182 15.3675 2.48625C16.1775 3.25125 16.8189 4.15083 17.2917 5.185C17.7645 6.21917 18.0006 7.32417 18 8.5C18 9.67583 17.7636 10.7808 17.2908 11.815C16.818 12.8492 16.1769 13.7487 15.3675 14.5137C14.5575 15.2787 13.605 15.8845 12.51 16.331C11.415 16.7776 10.245 17.0006 9 17ZM9 15.3C11.01 15.3 12.7125 14.6412 14.1075 13.3237C15.5025 12.0062 16.2 10.3983 16.2 8.5C16.2 6.60167 15.5025 4.99375 14.1075 3.67625C12.7125 2.35875 11.01 1.7 9 1.7C6.99 1.7 5.2875 2.35875 3.8925 3.67625C2.4975 4.99375 1.8 6.60167 1.8 8.5C1.8 10.3983 2.4975 12.0062 3.8925 13.3237C5.2875 14.6412 6.99 15.3 9 15.3Z" fill="black" fill-opacity="0.7"/>
</svg>
